<svg id="Layer_1" data-name="Layer 1" xmlns="http://www.w3.org/2000/svg" viewBox="0 0 72 37.03109"><defs><style>.cls-1{fill:#fff;}</style></defs><title>RIT_hor_w</title><path class="cls-1" d="M39.57169,8.69993c.42994-1.12487,1.84974-1.12487,2.98962-1.12487h.212V6.02429s-4.44371.098-5.80284.098c-1.4002,0-5.55276-.098-5.55276-.098V7.57506h.212c1.13982,0,2.55968,0,2.98859,1.12291a21.36126,21.36126,0,0,1,.35695,4.85438v9.90674a21.4039,21.4039,0,0,1-.35592,4.85341c-.42994,1.12388-1.8498,1.12388-2.98962,1.12388h-.212v1.55181c-.0001-.00388,3.5923-.153,5.55912-.153,2.264,0,5.79648.153,5.79648.153V29.43638h-.212c-1.13988,0-2.55968,0-2.98865-1.12187a21.37019,21.37019,0,0,1-.35695-4.85542V13.55235A21.39209,21.39209,0,0,1,39.57169,8.69993Z"/><path class="cls-1" d="M46.14387,6.04891v6.47521h1.53979l.007-.204c.141-4.21347,1.75277-4.39143,5.38434-4.39143.125,0,.25,0,.37294-.001.90291-.006,1.75479-.011,2.08971.322a.62682.62682,0,0,1,.167.46894V25.74045c0,2.52569-.354,3.56956-3.91053,3.71658l-.203.008V31.0078s4.14644-.152,6.54562-.152c1.83163,0,5.9208.152,5.9208.152V29.465l-.20292-.008c-3.5576-.147-3.91053-1.19089-3.91053-3.71658V8.71856a.56271.56271,0,0,1,.163-.42194c.41-.403,1.53985-.38594,2.44769-.37294.172.003.341.005.501.005,3.55156,0,4.69638,1.02783,4.90338,4.39747l.012.198H69.5V6.04891s-8.96243.05844-11.67806.05844S46.14387,6.04891,46.14387,6.04891Z"/><path class="cls-1" d="M27.97229,29.43739a4.44236,4.44236,0,0,1-3.50458-1.84481l-7.37109-8.462c3.88153-.50593,6.27424-3.07262,6.27424-6.77816A5.45981,5.45981,0,0,0,20.6032,7.17909,12.28855,12.28855,0,0,0,14.668,6.02628c-.77792.019-2.64866.08343-4.70941.08343-2.13714,0-6.57722-.08643-6.57722-.08643V7.57406h.30794C4.86612,7.567,6.191,7.57205,6.542,8.68994a22.29994,22.29994,0,0,1,.32295,4.58941V23.45809a36.24205,36.24205,0,0,1-.14966,3.99725,4.81123,4.81123,0,0,1-.17427.86615c-.36,1.11389-1.79482,1.11389-2.94867,1.11389h-.211v1.55076s3.456-.15195,5.76631-.15195c1.98614,0,5.44042.14809,5.44031.15195V29.43538h-.307c-1.15788.005-2.47071.002-2.85366-1.1159a4.83029,4.83029,0,0,1-.17393-.86414,33.45853,33.45853,0,0,1-.149-3.72525V19.56861c1.37886.012,1.49884.157,2.20872,1.01386.131.158.281.338.454.53795l6.15219,7.634,1.8088,2.23171s1.98335-.08368,2.94727-.08368c1.40155,0,3.476.08674,3.476.08674V29.46534ZM11.10437,17.87278s-.001-9.01385-.002-9.06688c-.006-.35994-.016-.85188.284-.99084a19.72941,19.72941,0,0,1,2.32375-.019c3.16159,0,4.97638,1.85078,4.97638,5.07542,0,2.35066-.62493,3.6995-2.02576,4.37544C15.35489,17.87778,11.10437,17.87278,11.10437,17.87278Z"/></svg>